<?xml version="1.0"?>
<svg xmlns="http://www.w3.org/2000/svg" xmlns:xlink="http://www.w3.org/1999/xlink" xmlns:svgjs="http://svgjs.com/svgjs" version="1.1" width="512" height="512" x="0" y="0" viewBox="0 0 512.012 512.012" style="enable-background:new 0 0 512 512" xml:space="preserve" class=""><g><path xmlns="http://www.w3.org/2000/svg" d="m297.515 161.171c8.836 0 16-7.164 16-16v-6.367c0-8.836-7.164-16-16-16s-16 7.164-16 16v6.367c0 8.836 7.164 16 16 16z" fill="#333333" data-original="#000000" style="" class=""/><path xmlns="http://www.w3.org/2000/svg" d="m360.512 115.012c5.115 0 7.827-2.056 13.446-5.263 7.675-4.38 10.346-14.152 5.965-21.827s-14.154-10.346-21.827-5.965l-5.53 3.156c-14.241 8.128-8.376 29.899 7.946 29.899z" fill="#333333" data-original="#000000" style="" class=""/><path xmlns="http://www.w3.org/2000/svg" d="m344.196 198.371c5.105 0 7.765-2.021 13.445-5.262 7.675-4.379 10.347-14.151 5.967-21.826-4.379-7.676-14.152-10.346-21.826-5.967l-5.53 3.156c-14.242 8.125-8.38 29.899 7.944 29.899z" fill="#333333" data-original="#000000" style="" class=""/><path xmlns="http://www.w3.org/2000/svg" d="m165.071 246.465c-8.836 0-16 7.164-16 16v6.367c0 8.836 7.164 16 16 16s16-7.164 16-16v-6.367c0-8.837-7.163-16-16-16z" fill="#333333" data-original="#000000" style="" class=""/><path xmlns="http://www.w3.org/2000/svg" d="m246.975 397.669-5.531-3.156c-7.674-4.379-17.447-1.709-21.827 5.966s-1.708 17.447 5.966 21.827l5.531 3.156c7.717 4.403 17.47 1.668 21.827-5.966 4.38-7.675 1.708-17.447-5.966-21.827z" fill="#333333" data-original="#000000" style="" class=""/><path xmlns="http://www.w3.org/2000/svg" d="m222.819 341.811c5.49 3.133 8.31 5.262 13.445 5.262 16.338 0 22.177-21.779 7.944-29.9l-5.531-3.156c-7.673-4.379-17.447-1.708-21.826 5.968-4.379 7.674-1.707 17.446 5.968 21.826z" fill="#333333" data-original="#000000" style="" class=""/><path xmlns="http://www.w3.org/2000/svg" d="m478.07 5.54c-4.315-2.436-11.769-5.772-16.92-5.528l-84.074 4.119c-64.1-.486-140.496 86.539-176.731 175.45-25.621-18.355-50.061-26.754-71.055-24.754l-78.307-4.401c-10.316-.59-57.01 14.956-50.329 95.803 9.389 113.607 113.465 256.021 194.559 259.749l59.993 4.309c15.527 3.272 30.974 2.149 44.743-5.622 45.643-25.756 37.111-99.106 20.95-149.407 80.643-8.341 181.256-148.007 190.465-259.437 3.64-44.049-8.185-76.112-33.294-90.281zm-71.165 93.585c-5.69 68.843-53.797 156.915-108.153 202.492-5.031-9.984-10.113-19.088-15.46-27.926l3.141-1.793c7.675-4.38 10.346-14.152 5.966-21.827s-14.152-10.347-21.827-5.966l-4.958 2.829c-12.361-17.145-25.653-32.574-39.396-45.724 51.411-137.964 191.644-234.697 180.687-102.085zm-374.36 144.47c-1.75-21.176.06-53.05 19.759-61.043l32.095 1.804c-38.396 67.355 21.137 215.677 104.147 288.6-58.473-12.182-147.742-129.427-156.001-229.361zm251.677 233.202c-13.401 7.563-35.28 1.644-60.028-16.238-59.179-42.762-113.05-138.038-119.082-211.026-2.514-30.428 3.73-52.216 17.131-59.779 13.402-7.563 35.281-1.644 60.028 16.238 59.178 42.762 113.052 138.054 119.082 211.025 2.515 30.429-3.729 52.217-17.131 59.78zm195.25-383.61c-7.955 96.266-93.743 215.061-155.843 229.223 83.227-73.236 142.41-221.702 103.846-288.709l32.19-1.577c19.703 7.947 21.573 39.7 19.807 61.063z" fill="#333333" data-original="#000000" style="" class=""/></g></svg>
