<?xml version="1.0"?>
<svg xmlns="http://www.w3.org/2000/svg" xmlns:xlink="http://www.w3.org/1999/xlink" xmlns:svgjs="http://svgjs.com/svgjs" version="1.1" width="512" height="512" x="0" y="0" viewBox="0 0 512 512" style="enable-background:new 0 0 512 512" xml:space="preserve" class=""><g><g xmlns="http://www.w3.org/2000/svg"><g><path d="m459.988 332.328c-.699-46.25-19.1-89.736-51.812-122.448l-16.761-16.761c-.019-.019-.035-.039-.054-.058h-.001c-9.474-9.475-23.531-12.926-39.585-9.715-14.949 2.99-30.068 11.522-42.571 24.024-12.501 12.502-21.034 27.621-24.024 42.57-3.21 16.052.239 30.11 9.714 39.585.931.931 1.908 1.801 2.925 2.615l13.889 13.888c7.701 7.702 11.944 17.943 11.944 28.837s-4.242 21.136-11.945 28.839c-7.7 7.704-17.94 11.947-28.832 11.947-10.894 0-21.136-4.244-28.841-11.948l-14.007-14.007c-.784-.97-1.603-1.913-2.494-2.804-9.476-9.476-23.534-12.926-39.588-9.716-14.948 2.99-30.067 11.523-42.569 24.025-1.242 1.242-2.324 2.378-3.308 3.473-2.768 3.081-2.514 7.823.568 10.591 3.081 2.768 7.823 2.515 10.591-.568.802-.893 1.702-1.837 2.754-2.888 10.433-10.433 22.829-17.509 34.906-19.925 10.975-2.195 20.223-.202 26.039 5.614 5.812 5.813 7.805 15.058 5.61 26.034-2.415 12.079-9.489 24.474-19.92 34.9-20.396 20.396-48.305 26.949-60.944 14.31-6.681-6.681-8.289-17.91-4.411-30.807 1.193-3.967-1.056-8.15-5.023-9.342-3.966-1.195-8.149 1.056-9.342 5.023-5.519 18.354-2.542 35.023 8.169 45.733l16.82 16.821c29.628 29.629 68.915 47.826 110.621 51.239 4.823.395 9.646.591 14.457.591 36.31 0 71.941-11.148 101.66-32.025 3.39-2.381 4.207-7.059 1.825-10.449-2.381-3.389-7.058-4.206-10.448-1.826-62.669 44.027-146.907 38.026-202.805-13.624 2.431-.177 4.916-.501 7.457-1.009 4.453-.891 8.92-2.284 13.329-4.117 25.387 19.872 56.622 30.613 89.008 30.613 2.023 0 4.051-.042 6.082-.126 36.359-1.507 70.525-16.482 96.203-42.165 25.684-25.679 40.66-59.845 42.167-96.204 1.431-34.54-9.373-68.114-30.485-95.088 1.834-4.411 3.227-8.879 4.118-13.334.508-2.539.83-5.021 1.007-7.45 57.709 62.382 57.805 158.02-.821 220.552-2.833 3.022-2.68 7.768.342 10.601 1.447 1.357 3.29 2.029 5.128 2.029 2.001 0 3.997-.796 5.474-2.37 31.512-33.612 48.482-77.535 47.784-123.68zm-140.176-114.351c13.339-13.339 29.892-20.757 43.286-20.757 7.074 0 13.264 2.07 17.635 6.429.005.005.01.012.016.017l.049.049c12.577 12.66 6.016 40.523-14.354 60.894-20.395 20.395-48.305 26.947-60.941 14.31-12.639-12.638-6.086-40.546 14.309-60.942zm-36.937 172.674c14.901 0 28.908-5.804 39.439-16.342 10.536-10.535 16.338-24.543 16.338-39.444 0-12.716-4.238-24.774-12.024-34.586 2.556-.168 5.174-.504 7.852-1.039 3.505-.701 7.018-1.718 10.506-3.008 17.684 28.447 13.652 66.34-10.378 90.371-24.029 24.029-61.922 28.066-90.374 10.39 1.292-3.492 2.31-7.009 3.012-10.519.536-2.68.869-5.297 1.037-7.854 9.815 7.791 21.875 12.031 34.592 12.031zm91.794 36.013c-24.989 24.993-58.361 37.674-91.805 37.672-26.034-.002-52.11-7.694-74.294-23.241 5.143-3.436 10.075-7.476 14.653-12.055 5.702-5.7 10.567-11.948 14.468-18.474 13.604 8.112 29.226 12.43 45.182 12.43 2.061 0 4.128-.072 6.196-.217 21.2-1.483 41.14-10.564 56.147-25.571 15.007-15.008 24.087-34.946 25.569-56.143 1.264-18.079-3.055-36.017-12.22-51.378 6.529-3.902 12.782-8.768 18.487-14.473 4.576-4.577 8.614-9.506 12.049-14.647 35.517 50.682 30.016 121.658-14.432 166.097z" fill="#333333" data-original="#000000" style="" class=""/><path d="m177.312 322.823c9.039-4.318 17.822-10.606 25.401-18.185 7.621-7.621 13.705-16.092 18.081-25.173 10.685-22.138 9.24-43.973-3.804-57.017-.871-.86-1.814-1.7-2.809-2.5l-13.972-13.981c-7.7-7.692-11.941-17.932-11.941-28.834 0-10.894 4.242-21.135 11.944-28.837 15.896-15.896 41.769-15.896 57.674 0l13.955 13.956c.815 1.021 1.67 1.98 2.545 2.855 13.019 13.019 34.855 14.464 56.974 3.776 8.953-4.303 17.662-10.554 25.189-18.08 7.58-7.591 13.869-16.376 18.186-25.4 4.57-9.54 6.986-19.365 6.986-28.411 0-11.434-3.758-21.235-10.868-28.346l-16.818-16.807c-.775-.776-1.553-1.542-2.34-2.298-2.988-2.87-7.737-2.772-10.604.215-2.869 2.988-2.773 7.735.215 10.605.713.685 1.416 1.378 2.122 2.085l16.82 16.809c5.35 5.349 6.473 12.598 6.473 17.737 0 3.7-.581 7.629-1.671 11.65l-33.902-33.912c-3.044-3.044-6.249-5.972-9.515-8.694-27.567-23.078-62.653-34.967-98.788-33.465-36.359 1.507-70.525 16.479-96.205 42.159s-40.653 59.846-42.159 96.205c-1.498 36.137 10.387 71.22 33.447 98.765 2.683 3.231 5.614 6.439 8.713 9.538l33.92 33.911c-12.118 3.32-22.87 1.708-29.387-4.815-.079-.079-.159-.155-.24-.23l-16.583-16.583c-63.156-63.157-63.156-165.92-.001-229.076 30.605-30.595 71.283-47.445 114.54-47.445 30.547 0 60.288 8.532 86.004 24.673 3.509 2.201 8.137 1.143 10.34-2.366 2.202-3.508 1.143-8.137-2.365-10.34-28.109-17.642-60.607-26.967-93.979-26.967-47.263 0-91.707 18.409-125.146 51.837-69.005 69.006-69.005 181.286 0 250.291l16.81 16.81c.086.086.174.17.264.251 7.191 7.05 17.031 10.625 28.105 10.624 8.911.001 18.62-2.313 28.389-6.99zm107.679-168.327c-.544-.543-1.083-1.159-1.605-1.83-.192-.249-.4-.484-.622-.707l-14.272-14.272c-21.755-21.744-57.143-21.742-78.887.001-10.535 10.535-16.337 24.543-16.337 39.444 0 14.912 5.803 28.921 16.335 39.442l14.27 14.28c.213.214.439.415.677.601.684.537 1.322 1.096 1.864 1.631 6.574 6.575 8.164 17.422 4.752 29.638l-33.851-33.85c-2.57-2.571-4.971-5.358-7.134-8.282-21.332-28.866-18.266-69.788 7.133-95.188 25.4-25.399 66.321-28.466 95.185-7.135 2.925 2.163 5.712 4.564 8.283 7.135l33.849 33.849c-12.209 3.416-23.058 1.825-29.64-4.757zm-155.542 105.597c-42.662-50.959-39.236-127.721 7.798-174.756 47.035-47.034 123.798-50.459 174.769-7.788 2.932 2.443 5.799 5.064 8.524 7.788l38.209 38.219c-3.385 5.883-7.74 11.566-12.811 16.644-5.016 5.017-10.63 9.331-16.449 12.696l-38.098-38.097c-3.096-3.096-6.45-5.985-9.973-8.59-16.799-12.415-37.598-18.445-58.578-16.977-21.193 1.483-41.127 10.563-56.131 25.567s-24.084 34.939-25.567 56.131c-1.468 20.975 4.561 41.779 16.978 58.582 2.605 3.521 5.494 6.875 8.589 9.97l38.099 38.099c-3.371 5.82-7.688 11.436-12.703 16.451-5.07 5.07-10.751 9.423-16.64 12.807l-38.219-38.209c-2.771-2.773-5.388-5.638-7.797-8.537z" fill="#333333" data-original="#000000" style="" class=""/></g></g></g></svg>
