<?xml version="1.0"?>
<svg xmlns="http://www.w3.org/2000/svg" xmlns:xlink="http://www.w3.org/1999/xlink" xmlns:svgjs="http://svgjs.com/svgjs" version="1.1" width="512" height="512" x="0" y="0" viewBox="0 0 512 512" style="enable-background:new 0 0 512 512" xml:space="preserve" class=""><g>
<g xmlns="http://www.w3.org/2000/svg">
	<g>
		<path d="M219.442,426.2c-17.598,0-31.914,14.317-31.914,31.914v21.972c0,17.598,14.317,31.913,31.914,31.913    c17.598,0,31.914-14.316,31.914-31.913v-21.972C251.356,440.518,237.039,426.2,219.442,426.2z M236.357,480.086    c0,9.326-7.588,16.915-16.916,16.915c-9.327,0-16.916-7.588-16.916-16.915v-21.972c0-9.327,7.588-16.916,16.916-16.916    c9.327,0,16.916,7.588,16.916,16.916V480.086z" fill="#333333" data-original="#000000" style="" class=""/>
	</g>
</g>
<g xmlns="http://www.w3.org/2000/svg">
	<g>
		<path d="M496.995,112.87c1.79-13.761,2.542-27.78,2.177-41.958c-0.612-23.784-12.307-45.059-32.084-58.37    C447.219-0.829,422.981-3.66,400.587,4.776L116.148,111.92c-3.877,1.46-5.835,5.786-4.375,9.661    c1.46,3.877,5.79,5.834,9.661,4.375L405.873,18.812c17.796-6.704,37.053-4.452,52.839,6.172    c15.697,10.564,24.979,27.445,25.466,46.313c2.807,109.016-63.915,208.105-166.029,246.569    c-102.115,38.465-217.629,8.02-287.442-75.757c-12.083-14.499-16.245-33.308-11.419-51.604    c4.854-18.398,17.843-32.795,35.635-39.498l38.757-14.599c3.876-1.46,5.834-5.786,4.375-9.661    c-1.46-3.877-5.789-5.835-9.661-4.375l-38.757,14.599c-22.395,8.436-38.743,26.555-44.85,49.709    c-6.081,23.051-0.832,46.754,14.399,65.032c9.073,10.887,18.889,20.902,29.304,30.058c20.914,57.976,59.707,83.931,59.707,83.931    v15.249c0,4.143,3.357,7.499,7.499,7.499c4.143,0,7.499-3.357,7.499-7.499V328.37c16.339,6.804,33.292,11.996,50.613,15.507    c-9.658,2.629-16.782,11.471-16.782,21.95v58.652c0,9.327-7.588,16.916-16.916,16.916c-9.327,0-16.916-7.588-16.916-16.916    v-12.831c0-4.143-3.357-7.499-7.499-7.499c-4.143,0-7.499,3.357-7.499,7.499v12.831c0,17.598,14.317,31.914,31.914,31.914    c17.598,0,31.914-14.317,31.914-31.914V408.47c26.249,11.75,59.625,20.156,97.981,20.908c28.732,0.563,57.037-5.184,84.323-15.462    c58.881-22.179,105.992-65.773,132.653-122.752C513.33,234.859,516.857,171.617,496.995,112.87z M108.195,345.838    c-12.661-13.055-23.578-27.48-32.664-43.15c10.477,7.084,21.396,13.39,32.664,18.905V345.838z M172.023,391.919v-23.623    c5.058,2.763,10.24,5.313,15.504,7.637v5.185c0,7.735,2.768,14.835,7.363,20.365C187.136,398.731,179.511,395.537,172.023,391.919    z M202.526,381.118v-15.291c0-7.817-3.965-14.725-9.987-18.822c11.676,1.53,26.468,2.725,43.818,2.169v31.944    c0,9.327-7.588,16.916-16.916,16.916C210.114,398.033,202.526,390.445,202.526,381.118z M473.397,284.809    c-24.994,53.414-69.157,94.28-124.355,115.073c-30.073,11.328-61.45,16.052-93.251,14.05c-8.427-0.531-16.763-1.542-24.997-2.993    c8.54-3.263,15.332-10.088,18.542-18.654c6.73,0.681,13.493,1.037,20.262,1.037c24.475,0,48.987-4.43,72.034-13.11    c62.616-23.586,109.691-76.474,125.926-141.476c1.004-4.019-1.44-8.089-5.459-9.093c-4.019-1.002-8.089,1.44-9.093,5.459    c-15.042,60.223-58.652,109.224-116.66,131.074c-27.099,10.206-56.375,14.061-84.989,11.245v-29.124    c24.268-2.113,48.515-7.517,72.079-16.394c83.83-31.576,145.114-101.759,167.015-185.504    C499.632,192.936,493.849,241.1,473.397,284.809z" fill="#333333" data-original="#000000" style="" class=""/>
	</g>
</g>
<g xmlns="http://www.w3.org/2000/svg">
	<g>
		<path d="M314.984,117.583c-12.405,0-22.498,10.093-22.498,22.498c0,12.405,10.093,22.498,22.498,22.498    c12.405,0,22.498-10.093,22.498-22.498C337.482,127.676,327.389,117.583,314.984,117.583z M314.984,147.581    c-4.136,0-7.499-3.364-7.499-7.499c0-4.136,3.364-7.499,7.499-7.499c4.136,0,7.499,3.364,7.499,7.499    C322.483,144.217,319.119,147.581,314.984,147.581z" fill="#333333" data-original="#000000" style="" class=""/>
	</g>
</g>
<g xmlns="http://www.w3.org/2000/svg">
	<g>
		<path d="M365.766,176.713c-12.405,0-22.498,10.093-22.498,22.498c0,12.405,10.093,22.498,22.498,22.498    s22.498-10.093,22.498-22.498C388.264,186.806,378.171,176.713,365.766,176.713z M365.766,206.711    c-4.136,0-7.499-3.364-7.499-7.499c0-4.136,3.364-7.499,7.499-7.499c4.136,0,7.499,3.364,7.499,7.499    C373.265,203.347,369.901,206.711,365.766,206.711z" fill="#333333" data-original="#000000" style="" class=""/>
	</g>
</g>
<g xmlns="http://www.w3.org/2000/svg">
	<g>
		<path d="M380.764,90.766c-12.405,0-22.498,10.093-22.498,22.498s10.093,22.498,22.498,22.498    c12.405,0,22.498-10.093,22.498-22.498S393.169,90.766,380.764,90.766z M380.764,120.764c-4.136,0-7.499-3.364-7.499-7.499    s3.364-7.499,7.499-7.499s7.499,3.364,7.499,7.499S384.9,120.764,380.764,120.764z" fill="#333333" data-original="#000000" style="" class=""/>
	</g>
</g>
<g xmlns="http://www.w3.org/2000/svg">
	<g>
		<circle cx="288.706" cy="206.713" r="7.499" fill="#333333" data-original="#000000" style="" class=""/>
	</g>
</g>
<g xmlns="http://www.w3.org/2000/svg">
	<g>
		<circle cx="243.86" cy="120.32" r="7.499" fill="#333333" data-original="#000000" style="" class=""/>
	</g>
</g>
<g xmlns="http://www.w3.org/2000/svg">
	<g>
		<circle cx="231.651" cy="174.695" r="7.499" fill="#333333" data-original="#000000" style="" class=""/>
	</g>
</g>
<g xmlns="http://www.w3.org/2000/svg">
</g>
<g xmlns="http://www.w3.org/2000/svg">
</g>
<g xmlns="http://www.w3.org/2000/svg">
</g>
<g xmlns="http://www.w3.org/2000/svg">
</g>
<g xmlns="http://www.w3.org/2000/svg">
</g>
<g xmlns="http://www.w3.org/2000/svg">
</g>
<g xmlns="http://www.w3.org/2000/svg">
</g>
<g xmlns="http://www.w3.org/2000/svg">
</g>
<g xmlns="http://www.w3.org/2000/svg">
</g>
<g xmlns="http://www.w3.org/2000/svg">
</g>
<g xmlns="http://www.w3.org/2000/svg">
</g>
<g xmlns="http://www.w3.org/2000/svg">
</g>
<g xmlns="http://www.w3.org/2000/svg">
</g>
<g xmlns="http://www.w3.org/2000/svg">
</g>
<g xmlns="http://www.w3.org/2000/svg">
</g>
</g></svg>
