<?xml version="1.0"?>
<svg xmlns="http://www.w3.org/2000/svg" xmlns:xlink="http://www.w3.org/1999/xlink" xmlns:svgjs="http://svgjs.com/svgjs" version="1.1" width="512" height="512" x="0" y="0" viewBox="0 0 480.05613 480" style="enable-background:new 0 0 512 512" xml:space="preserve" class=""><g><path xmlns="http://www.w3.org/2000/svg" d="m72.015625 456.0625c27.417969.019531 54.609375-4.945312 80.25-14.65625l322.582031-121.855469c3.113282-1.179687 5.171875-4.160156 5.167969-7.488281-.019531-21.128906-3.257813-42.132812-9.597656-62.289062 13.128906-15.105469 12.808593-37.667969-.746094-52.398438 1.5625-4.265625 2.355469-8.769531 2.34375-13.3125-.003906-7.058594-1.882813-13.988281-5.4375-20.085938 3.566406-6.03125 5.445313-12.910156 5.4375-19.914062-.027344-22.078125-17.917969-39.972656-40-40-4.070313.003906-8.121094.632812-12 1.871094-1.53125-.484375-3.09375-.878906-4.671875-1.183594-2.464844-13.113281-11.320312-24.128906-23.597656-29.359375-1.734375-15.1875-11.996094-28.042969-26.421875-33.101563-14.421875-5.058593-30.46875-1.425781-41.308594 9.351563-11.738281-11.375-29.175781-14.554687-44.175781-8.058594.113281-1.183593.175781-2.398437.175781-3.519531.019531-20.675781-15.726563-37.960938-36.316406-39.863281-20.589844-1.90625-39.234375 12.199219-43.011719 32.527343-8.417969 1.558594-16.101562 5.820313-21.886719 12.136719-5.847656-3.082031-12.34375-4.730469-18.953125-4.800781-10.300781-13.773438-28.269531-19.394531-44.582031-13.945312-16.316406 5.453124-27.296875 20.746093-27.25 37.945312v.175781c-5.53125 4.1875-9.890625 9.734375-12.65625 16.097657-14.195313 1.691406-26.398437 10.84375-32 24-20.136719 2.382812-35.316406 19.445312-35.34375 39.726562.011719 9.882812 3.722656 19.402344 10.402344 26.6875-1.582031 4.261719-2.394531 8.769531-2.402344 13.3125.011719 9.882812 3.722656 19.402344 10.402344 26.6875-1.027344 2.789062-1.730469 5.683594-2.097657 8.632812-14.722656 6.246094-24.289062 20.6875-24.304687 36.679688-.0351562 11.105469 4.609375 21.714844 12.800781 29.214844-6.433594 11.710937-6.433594 25.894531 0 37.601562-13.171875 12.097656-16.601562 31.519532-8.375 47.398438-2.871094 4.023437-4.4179685 8.84375-4.425781 13.785156.046875 39.746094 32.253906 71.957031 72 72zm74.59375-29.601562c-23.835937 9.019531-49.109375 13.625-74.59375 13.601562-30.914063-.035156-55.964844-25.085938-56-56 0-4.417969 3.582031-8 8-8s8 3.582031 8 8c.027344 22.082031 17.921875 39.972656 40 40h8c22.082031-.027344 39.972656-17.917969 40-40v-62.886719c.007813-55.542969 20.03125-109.226562 56.410156-151.199219 42.515625-49.070312 112.519531-63.792968 171.199219-36l5.304688 2.511719c65.90625 31.460938 108.734374 97.082031 111.007812 170.078125zm-90.59375-138.398438c-.019531-13.863281 7.148437-26.746094 18.945313-34.035156 11.792968-7.289063 26.523437-7.9375 38.910156-1.714844-5.792969 19.9375-9.046875 40.527344-9.6875 61.277344-6.542969-2.492188-13.863282-1.90625-19.925782 1.601562-5.222656-8.328125-15.039062-12.574218-24.679687-10.671875-2.34375-5.171875-3.554687-10.78125-3.5625-16.457031zm16-56c.027344-3.386719 2.183594-6.386719 5.386719-7.496094 2.332031-.820312 4.15625-2.671875 4.941406-5.019531.78125-2.347656.433594-4.925781-.941406-6.980469-2.261719-3.335937-1.648438-7.839844 1.421875-10.449218 1.722656-1.515626 2.707031-3.703126 2.707031-6 0-2.292969-.984375-4.480469-2.707031-6-2.59375-2.148438-3.546875-5.703126-2.378907-8.863282 1.167969-3.160156 4.203126-5.242187 7.570313-5.191406.214844.035156.425781.085938.632813.144531 2.90625 20.597657 17.074218 37.84375 36.710937 44.695313-2.351563 5.296875-4.535156 10.65625-6.511719 16.105468-14.355468-6.507812-30.800781-6.59375-45.222656-.242187-1.027344-1.355469-1.589844-3.003906-1.609375-4.703125zm113.359375-99.535156c-2.257812-3.335938-1.644531-7.839844 1.425781-10.449219 1.722657-1.519531 2.707031-3.703125 2.707031-6s-.984374-4.480469-2.707031-6c-2.269531-1.9375-3.261719-4.988281-2.566406-7.894531.699219-2.902344 2.96875-5.171875 5.871094-5.867188 2.90625-.699218 5.953125.292969 7.894531 2.5625 1.5625 1.660156 3.742188 2.601563 6.023438 2.601563s4.460937-.941407 6.023437-2.601563c1.484375-1.765625 3.664063-2.792968 5.96875-2.816406 4.417969 0 8 3.582031 8 8s3.582031 8 8 8c.816406.015625 1.628906.15625 2.402344.417969-17.367188 5.859375-33.601563 14.648437-48 25.980469.453125-2.035157.078125-4.171876-1.042969-5.933594zm246.503906 46.03125c-13.253906-16.199219-28.851562-30.328125-46.277344-41.917969 11.585938-2 23.464844 1.242187 32.425782 8.855469 8.964844 7.613281 14.085937 18.808594 13.988281 30.566406 0 .839844-.078125 1.664062-.136719 2.496094zm-65.886718-53.289063c-2.078126-1.070312-4.101563-2.230469-6.230469-3.199219l-5.304688-2.511718c-13.335937-6.296875-27.46875-10.734375-42.007812-13.191406-.273438-.738282-.417969-1.515626-.433594-2.304688 0-4.417969 3.582031-8 8-8 2.304687.015625 4.484375 1.03125 5.976563 2.785156 1.5625 1.660156 3.742187 2.601563 6.023437 2.601563s4.460937-.941407 6.023437-2.601563c1.492188-1.753906 3.675782-2.769531 5.976563-2.785156 4.417969 0 8 3.582031 8 8s3.582031 8 8 8 8 3.582031 8 8c.003906 1.929688-.71875 3.789062-2.023437 5.207031zm-69.976563-20.832031c-3.445313-.230469-6.894531-.375-10.34375-.375-11.226563.007812-22.417969 1.1875-33.398437 3.527344-2.042969-3.351563-4.875-6.15625-8.25-8.160156 14.503906-14.25 37.433593-15.21875 53.089843-2.246094-.703125 2.226562-1.074219 4.542968-1.097656 6.878906zm-136 47.625c.027344 3.429688.792969 6.8125 2.242187 9.921875-11.511718 13.632813-21.511718 28.476563-29.824218 44.261719-15.1875-4.507813-26.269532-17.566406-28.246094-33.285156-1.976562-15.714844 5.53125-31.113282 19.128906-39.238282 13.601563-8.125 30.714844-7.4375 43.621094 1.75-4.390625 4.410156-6.875 10.367188-6.921875 16.589844zm-103.007813 188.6875c1.722657-2.578125 1.800782-5.917969.199219-8.574219-1.785156-2.898437-1.542969-6.605469.601563-9.246093 2.144531-2.640626 5.726562-3.636719 8.925781-2.480469 3.203125 1.15625 5.320313 4.210937 5.28125 7.613281.183594 4.324219 3.632813 7.792969 7.953125 8l1.128906.144531c3.234375.4375 6.40625-1.148437 8-4 1.371094-2.542969 4.027344-4.132812 6.917969-4.144531 4.417969 0 8 3.582031 8 8v48c0 13.253906-10.742187 24-24 24h-8c-9.183594-.042969-17.539063-5.320312-21.519531-13.601562.121094-.125.175781-.292969.3125-.40625 1.722656-1.519532 2.707031-3.703126 2.707031-6 0-2.296876-.984375-4.480469-2.707031-6-3.070313-2.609376-3.683594-7.113282-1.425782-10.449219 1.394532-2.058594 1.75-4.644531.96875-7.003907-.785156-2.359374-2.621093-4.21875-4.96875-5.035156-3.195312-1.113281-5.34375-4.117187-5.367187-7.503906-.058594-2.335938.933594-4.574219 2.703125-6.097656 1.773438-1.519532 4.132812-2.167969 6.433594-1.757813 3.070312.492188 6.144531-.859375 7.855468-3.457031zm-27.199218-21.261719c-7.742188-8.824219-7.742188-22.023437 0-30.847656 1.523437-1.796875 2.175781-4.171875 1.789062-6.492187-.386718-2.320313-1.773437-4.355469-3.796875-5.558594-8.367187-4.890625-12.9375-14.363282-11.558593-23.957032 1.382812-9.589843 8.4375-17.390624 17.847656-19.722656 3.65625-.925781 6.167968-4.277344 6.03125-8.046875.007812-.269531-.027344-.542969-.105469-.800781.039063-3.988281 1.082031-7.898438 3.03125-11.375 1.851563-3.394531 1.011719-7.628906-2-10.054688-9.160156-7.105468-11.714844-19.859374-6-29.945312 1.851563-3.394531 1.011719-7.628906-2-10.054688-7.875-6.273437-10.96875-16.8125-7.742187-26.347656 3.230468-9.539062 12.09375-16.023437 22.160156-16.222656.296875 0 1.085937.121094 1.382812.128906 3.730469.066406 7.03125-2.414062 8-6.015625 2.585938-10.449219 11.855469-17.871093 22.617188-18.113281.296875.039062 1.085937.121094 1.382812.128906 3.730469.066406 7.03125-2.414062 8-6.015625 1.65625-6.328125 5.808594-11.710937 11.511719-14.914062 2.839844-1.601563 4.421875-4.765625 4-8l-.125-.925781c-.128906-.753907-.199219-1.511719-.21875-2.273438-.039063-10.910156 7.316406-20.460938 17.875-23.210938s21.640625 2.003907 26.925781 11.546876c1.589844 2.851562 4.765625 4.441406 8 4l.800782-.113282c.792968-.128906 1.59375-.203125 2.398437-.222656 5.671875.027344 11.144531 2.085938 15.425781 5.800781 1.792969 1.523438 4.164063 2.179688 6.488282 1.792969 2.320312-.386719 4.355468-1.773438 5.558593-3.792969 4.257813-7.304687 12.074219-11.796875 20.527344-11.800781 4.417969 0 8-3.582031 8-8-.179687-9.535156 5.304687-18.277344 13.96875-22.261719 8.667969-3.984375 18.871094-2.457031 25.996094 3.886719 7.121093 6.347656 9.808593 16.308594 6.84375 25.375-.867188 2.832031-.101563 5.90625 1.992187 8 1.433594 1.441406 2.683594 3.050781 3.71875 4.800781 1.21875 2.027344 3.265625 3.417969 5.601563 3.800781 2.320312.390626 4.699219-.265624 6.488281-1.792968 4.273438-3.710938 9.730469-5.773438 15.390625-5.808594 8.777344.042969 16.828125 4.871094 21 12.59375 1.402344 2.570312 4.097656 4.167969 7.023437 4.167969 2.929688 0 5.625-1.597657 7.027344-4.167969 5.15625-9.5625 16.113282-14.445312 26.671875-11.886719 10.558594 2.558594 18.066407 11.910157 18.277344 22.773438-.039063.265625-.117187 1.023437-.125 1.28125-.160156 3.777343 2.347656 7.152343 6.015625 8.085937 10.625 2.664063 18.082031 12.199219 18.109375 23.152344 0 4.417969 3.582031 8 8 8 3.085937.007812 6.140625.613281 8.992187 1.785156 1.929688.792969 4.089844.792969 6.015626 0 10.101562-4.191406 21.753906-.980468 28.28125 7.792969 6.53125 8.769531 6.257812 20.855469-.65625 29.328125-2.355469 2.925781-2.355469 7.101562 0 10.03125 6.148437 7.476562 7.066406 17.964844 2.3125 26.398438-1.851563 3.394531-1.007813 7.628906 2 10.054687 7.519531 5.777344 10.75 15.558594 8.144531 24.671875-5.140625-12.078125-11.390625-23.65625-18.671875-34.582031 6.425781-17.171875 4.023437-36.410157-6.4375-51.46875-10.460938-15.0625-27.640625-24.035157-45.980469-24.011719-2.703125.011719-5.402344.21875-8.078125.617188 0-.207032.078125-.410157.078125-.617188 0-10.570312-6.914063-19.898438-17.03125-22.96875-2.109375-7.019531-7.324219-12.683594-14.144531-15.367188-6.820313-2.683593-14.492188-2.09375-20.824219 1.601563-7.902344-4.632813-17.757813-4.320313-25.351563.796875-9.84375-7.839844-22.0625-12.09375-34.648437-12.0625-14.375.050781-28.191406 5.601562-38.605469 15.511719-7.609375-8.097657-19.804687-9.859375-29.394531-4.246094-9.390625-5.480469-21.296875-3.941406-28.984375 3.75-7.6875 7.6875-9.230469 19.59375-3.75 28.984375-.40625.832031-.769531 1.6875-1.082031 2.558594-16.085938-8.570313-35.34375-8.753906-51.585938-.484375-16.246093 8.269531-27.433593 23.945312-29.964843 42-.214844 0-.414063-.074219-.632813-.074219-8.582031-.023438-16.519531 4.550781-20.804687 11.988281-4.28125 7.4375-4.257813 16.597657.070312 24.011719-2.132812 3.640625-3.257812 7.78125-3.265625 12 .003906 1.886719.222656 3.765625.65625 5.601562-9.414063 7.777344-11.425781 21.417969-4.65625 31.582032-19.730469 16.492187-25.609375 44.347656-14.230469 67.410156-3.695312 4.285156-5.742187 9.746094-5.769531 15.40625v1.351562c-9.585937 3.40625-15.992187 12.476563-16 22.648438.046875 2.792969.585937 5.558594 1.601563 8.160156-.535157 0-1.046876-.160156-1.601563-.160156-2.105469.03125-4.199219.339844-6.222656.921875-4.5-10.941406-.21875-23.527344 10.023437-29.449219 2.023438-1.203125 3.410156-3.238281 3.796875-5.558594.386719-2.320312-.265625-4.695312-1.789062-6.488281zm0 0" fill="#333333" data-original="#000000" style="" class=""/><path xmlns="http://www.w3.org/2000/svg" d="m168.015625 360.0625h16v16h-16zm0 0" fill="#333333" data-original="#000000" style="" class=""/><path xmlns="http://www.w3.org/2000/svg" d="m184.015625 336.0625h16v16h-16zm0 0" fill="#333333" data-original="#000000" style="" class=""/><path xmlns="http://www.w3.org/2000/svg" d="m216.015625 360.0625h16v16h-16zm0 0" fill="#333333" data-original="#000000" style="" class=""/><path xmlns="http://www.w3.org/2000/svg" d="m200.015625 296.0625h16v16h-16zm0 0" fill="#333333" data-original="#000000" style="" class=""/><path xmlns="http://www.w3.org/2000/svg" d="m248.015625 312.0625h16v16h-16zm0 0" fill="#333333" data-original="#000000" style="" class=""/></g></svg>
